<svg width="534" height="534" viewBox="0 0 534 534" fill="none" xmlns="http://www.w3.org/2000/svg">
<rect x="44" y="44" width="480" height="480" rx="30" fill="white" stroke="white" stroke-width="20"/>
<rect x="15" y="15" width="470" height="470" rx="25" fill="#1F1F1F" stroke="white" stroke-width="30"/>
<path d="M205.551 217.22C211.958 217.22 217.061 216.071 221.163 214.3C227.3 211.655 231.275 207.58 233.777 203.511C235.024 201.487 235.887 199.476 236.429 197.705C236.971 195.94 237.185 194.386 237.179 193.459C237.179 191.688 238.716 190.257 240.613 190.257C242.509 190.257 244.047 191.688 244.047 193.459C244.047 194.609 243.895 195.876 243.593 197.271C243.064 199.716 242.082 202.53 240.462 205.445C238.049 209.791 234.206 214.358 228.459 217.818C227.016 218.704 225.474 219.495 223.797 220.199C223.533 221.26 223.161 223.119 223.167 225.377C223.167 227.013 223.362 228.831 223.891 230.702C224.421 232.572 225.284 234.472 226.67 236.331C227.735 237.791 227.356 239.773 225.795 240.776C224.238 241.779 222.102 241.421 221.025 239.967C219.148 237.451 217.957 234.83 217.251 232.338C216.551 229.839 216.306 227.459 216.306 225.377C216.306 224.339 216.369 223.36 216.457 222.481C213.156 223.19 209.539 223.612 205.552 223.612C203.655 223.612 202.117 222.182 202.117 220.416C202.116 218.652 203.654 217.22 205.551 217.22Z" fill="white"/>
<path d="M190.329 176.102C191.98 175.246 194.066 175.774 195.004 177.316C195.936 178.847 195.35 180.794 193.699 181.667C191.167 183.016 189.629 184.505 188.596 186.048C192.83 187.431 196.572 188.006 199.893 188.006C204.738 188 208.7 186.81 212.053 184.981C215.386 183.157 218.076 180.653 220.124 178.067C223.494 173.786 227.873 169.981 233.039 167.201C238.205 164.434 244.172 162.698 250.585 162.698C256.199 162.698 262.115 164.047 267.986 167.043C270.381 168.263 272.466 169.693 274.274 171.26C281.413 173.816 287.555 174.743 292.765 174.743C300.18 174.731 305.713 172.889 309.417 171.071C311.263 170.157 312.643 169.254 313.537 168.597C313.984 168.263 314.318 168.005 314.52 167.829L314.722 167.647L314.76 167.612C316.077 166.358 318.238 166.322 319.605 167.541C320.966 168.767 321.004 170.784 319.694 172.057C319.492 172.239 317.141 174.478 312.625 176.713C310.647 177.686 308.227 178.642 305.429 179.422C306.172 180.395 307.188 181.826 308.296 183.632C310.419 187.121 312.858 192.023 314.092 197.788C314.477 199.529 313.267 201.207 311.408 201.552C309.549 201.905 307.748 200.773 307.376 199.042C306.336 194.182 304.195 189.854 302.324 186.787C301.384 185.239 300.522 184.025 299.898 183.193C299.583 182.788 299.337 182.466 299.167 182.266C299.085 182.166 299.022 182.096 298.985 182.049L298.934 182.002L298.928 181.991C298.619 181.633 298.411 181.228 298.292 180.794C296.547 181.005 294.713 181.123 292.766 181.123C289.162 181.123 285.206 180.725 280.947 179.827C283.07 184.055 283.933 188.477 283.94 192.523C283.927 196.592 283.095 200.298 281.602 203.243C280.79 204.832 278.742 205.518 277.034 204.761C275.327 204.004 274.59 202.105 275.403 200.509C276.354 198.667 277.086 195.747 277.073 192.522C277.079 189.039 276.26 185.216 274.325 181.715C272.379 178.22 269.367 175.036 264.686 172.643C259.753 170.121 255.027 169.09 250.586 169.077C245.514 169.09 240.739 170.449 236.467 172.737C232.208 175.018 228.491 178.243 225.656 181.837C223.161 185.01 219.822 188.129 215.531 190.487C211.247 192.844 205.98 194.399 199.894 194.386C195.868 194.386 191.496 193.718 186.783 192.229L186.777 192.452C186.777 194.018 187.041 195.442 187.3 196.452C187.426 196.944 187.558 197.349 187.652 197.601C187.697 197.73 187.728 197.824 187.753 197.882L187.772 197.93V197.935C188.464 199.571 187.621 201.418 185.863 202.075C184.099 202.726 182.102 201.929 181.396 200.298C181.302 200.07 179.935 196.874 179.916 192.453C179.916 189.919 180.388 186.941 181.982 184.003C183.556 181.051 186.272 178.231 190.329 176.102Z" fill="white"/>
<path d="M278.402 152.236C276.038 149.644 272.68 147.604 268.856 146.237C265.032 144.853 260.773 144.167 256.778 144.167C252.897 144.167 249.274 144.829 246.628 145.985C244.896 146.723 242.861 146.02 242.074 144.425C241.28 142.824 242.029 140.918 243.744 140.192C247.574 138.538 252.085 137.799 256.779 137.793C261.605 137.793 266.632 138.596 271.327 140.274C276.001 141.951 280.349 144.513 283.625 148.12C284.859 149.462 284.677 151.474 283.234 152.611C281.785 153.76 279.611 153.585 278.402 152.236Z" fill="white"/>
<path d="M225.391 67.3258C309.966 62.4817 381.185 112.003 379.572 192.685L379.635 199.987L416.379 260.38C418.357 263.634 418.534 267.581 416.858 270.982C415.182 274.383 411.855 276.829 407.911 277.556L385.204 283.384L378.073 347.419C377.884 353.593 374.935 359.411 369.932 363.463C364.93 367.521 358.327 369.439 351.737 368.752L333.605 370.095C330.064 369.732 326.523 370.781 323.871 372.998C321.219 375.203 319.7 378.364 319.7 381.677V432H166.28C166.28 432 166.28 407.601 166.28 397.866C166.28 388.126 162.664 365.867 155.822 355.674C130.948 318.661 90.4621 298.97 83.6322 223.067C76.797 147.152 125.473 73.0553 225.391 67.3258ZM123.319 197.494C126.758 202.784 132.322 206.079 138.395 207.052C140.26 207.357 141.52 208.999 141.205 210.741C140.871 212.476 139.101 213.655 137.236 213.344C135.843 213.121 134.47 212.799 133.115 212.394C131.654 215.214 130.923 218.246 130.923 221.266C130.923 224.491 131.748 227.693 133.329 230.589C134.905 233.481 137.236 236.055 140.298 238.06C144.148 240.575 148.527 241.772 152.873 241.778C153.219 241.778 153.56 241.743 153.9 241.737C153.976 241.203 154.046 240.675 154.146 240.153V240.147C154.895 236.447 156.452 233.058 158.575 230.114L158.834 229.756L159.186 229.475C161.782 227.399 165.229 223.998 167.887 220.532C169.229 218.803 170.369 217.049 171.138 215.489C171.913 213.924 172.272 212.563 172.259 211.76C172.259 211.402 172.203 211.155 172.127 210.991C172.064 210.833 172.001 210.739 171.869 210.61C170.533 209.372 170.533 207.343 171.869 206.089C173.21 204.851 175.377 204.851 176.713 206.089C177.558 206.863 178.188 207.8 178.572 208.792C178.969 209.766 179.114 210.779 179.114 211.759C179.102 213.97 178.384 216.069 177.376 218.145C175.845 221.247 173.564 224.326 171.088 227.14C168.763 229.779 166.299 232.154 164.081 233.972C162.55 236.148 161.436 238.611 160.887 241.325C160.661 242.469 160.541 243.607 160.516 244.692V244.715C160.516 244.856 160.51 244.997 160.51 245.149C160.51 249.969 162.356 254.537 165.525 258.132C168.7 261.72 173.167 264.33 178.466 265.256C179.846 265.502 181.219 265.62 182.568 265.62C189.844 265.626 196.574 262.219 200.618 256.812C198.438 254.754 196.579 252.344 195.168 249.605V249.61C193.411 246.227 192.485 242.638 192.321 239.085C192.239 237.326 193.7 235.837 195.59 235.76C197.493 235.678 199.088 237.05 199.176 238.809C199.295 241.518 200.001 244.233 201.343 246.825L201.349 246.837C202.792 249.61 204.796 251.933 207.19 253.769L207.202 253.774C211.146 256.771 216.118 258.425 221.201 258.425C224.401 258.425 227.653 257.774 230.74 256.384C236.454 253.827 240.423 249.271 242.181 244.058H242.187C242.855 242.082 243.201 240 243.201 237.913C243.201 234.928 242.502 231.902 241.009 229.023C240.184 227.434 240.908 225.523 242.615 224.766C244.317 223.998 246.364 224.66 247.19 226.25C249.13 230.002 250.069 233.996 250.069 237.913C250.069 239.813 249.829 241.69 249.413 243.525C252.091 244.885 255.109 245.759 258.372 245.975H258.378C258.914 246.011 259.437 246.034 259.966 246.034C265.12 246.034 269.889 244.369 273.67 241.548C276.977 239.085 279.509 235.772 280.858 231.913C278.451 229.703 276.448 227.105 274.98 224.226C274.174 222.63 274.905 220.731 276.618 219.98C278.325 219.224 280.385 219.904 281.186 221.504C282.541 224.179 284.519 226.553 286.932 228.448C290.372 231.151 294.707 232.887 299.532 233.21H299.539C300.074 233.245 300.597 233.268 301.119 233.268C312.007 233.268 321.306 225.78 322.881 215.765L322.888 215.735V215.718C322.976 215.237 323.032 214.739 323.07 214.223C323.107 213.736 323.126 213.232 323.126 212.739C323.126 211.454 322.994 210.183 322.748 208.956C322.414 207.221 323.642 205.555 325.507 205.233C327.359 204.922 329.154 206.054 329.508 207.789C329.817 209.396 329.986 211.05 329.986 212.738L329.98 212.932C333.067 212.609 336.06 211.688 338.738 210.228C342.128 208.388 345.007 205.69 346.998 202.23C348.768 199.139 349.607 195.85 349.607 192.589C349.607 188.379 348.201 184.246 345.611 180.791C344.61 182.104 343.482 183.342 342.216 184.502C339.318 187.147 335.966 189.105 332.419 190.384C330.649 191.029 328.67 190.207 327.983 188.554C327.29 186.912 328.179 185.065 329.936 184.426C332.652 183.452 335.198 181.964 337.403 179.946V179.94C339.356 178.17 340.868 176.152 341.946 173.988C343.331 171.244 344.024 168.26 344.024 165.298C344.019 160.103 341.94 154.954 337.744 150.967C334.171 147.577 329.673 145.595 325.005 144.992H324.998H324.986C323.99 144.874 322.996 144.81 322 144.81C316.43 144.816 310.892 146.769 306.595 150.668C305.24 151.894 303.073 151.882 301.744 150.616C300.42 149.361 300.445 147.343 301.794 146.106C307.263 141.121 314.344 138.571 321.433 138.454C320.633 135.398 319.095 132.555 316.941 130.162C313.948 126.844 309.859 124.392 304.97 123.343C303.306 122.997 301.669 122.821 300.037 122.821C297.164 122.821 294.367 123.36 291.783 124.334C292.514 126.715 292.918 129.213 292.918 131.805C292.918 133.563 291.386 134.988 289.49 134.988C287.594 134.988 286.063 133.563 286.063 131.805C286.063 129.013 285.451 126.345 284.381 123.924C282.724 120.217 279.92 117.063 276.398 114.834C272.864 112.606 268.636 111.31 264.043 111.31C257.428 111.31 251.524 114.002 247.48 118.3C244.071 121.906 242.023 126.62 242.023 131.805C242.023 133.563 240.479 134.988 238.59 134.988C236.693 134.988 235.15 133.563 235.15 131.805C235.15 125.905 237.203 120.434 240.675 116.007C238.898 113.72 236.636 111.773 234.016 110.331C230.74 108.537 226.928 107.499 222.839 107.499C218.127 107.499 213.798 108.865 210.226 111.199C206.641 113.533 203.844 116.84 202.262 120.681H202.268C201.335 122.962 200.825 125.413 200.825 127.999C200.825 129.759 199.282 131.189 197.391 131.189C195.501 131.189 193.951 129.759 193.951 127.999C193.951 125.36 194.386 122.821 195.149 120.411C191.078 116.893 185.691 114.899 180.128 114.899C177.224 114.899 174.275 115.433 171.428 116.564C167.459 118.166 164.27 120.693 161.996 123.777C159.721 126.868 158.386 130.491 158.153 134.244C158.128 134.631 158.108 135.013 158.108 135.399C158.121 138.109 158.695 140.841 159.917 143.497C160.666 145.116 159.86 146.993 158.121 147.684C156.377 148.382 154.367 147.637 153.611 146.019C152.338 143.263 151.607 140.418 151.361 137.563C147.997 137.786 144.721 138.736 141.822 140.331C138.515 142.149 135.686 144.811 133.758 148.223C132.07 151.208 131.276 154.38 131.269 157.524C131.269 158.96 131.458 160.385 131.791 161.781C133.846 161.03 135.987 160.526 138.124 160.233C139.989 159.992 141.734 161.212 141.985 162.959C142.257 164.707 140.946 166.319 139.081 166.56C136.92 166.847 134.797 167.422 132.768 168.313C132.415 168.859 131.873 169.31 131.193 169.586C130.777 169.756 130.33 169.839 129.895 169.839C128.629 170.624 127.476 171.51 126.448 172.477L126.442 172.483C122.322 176.347 120.111 181.56 120.111 186.89C120.112 190.51 121.139 194.169 123.319 197.494Z" fill="white"/>
<path d="M158.953 169.266C160.655 167.899 162.481 166.779 164.416 165.993C166.357 165.196 168.398 164.721 170.483 164.721C172.38 164.721 173.911 166.152 173.911 167.917C173.911 169.682 172.38 171.107 170.483 171.107C169.223 171.107 167.635 171.512 165.947 172.415C163.433 173.758 160.818 176.174 158.928 179.188C157.012 182.207 155.791 185.79 155.803 189.502C155.816 193.578 157.196 197.835 160.938 202.063C162.135 203.417 161.934 205.435 160.472 206.555C159.01 207.687 156.843 207.487 155.639 206.138C150.933 200.843 148.923 194.98 148.929 189.502C148.929 186.172 149.66 182.982 150.857 180.073C152.672 175.716 155.557 171.997 158.953 169.266Z" fill="white"/>
<path d="M182.68 154.787C192.112 154.787 199.678 151.55 204.92 147.322C207.541 145.211 209.545 142.854 210.862 140.59C212.198 138.333 212.803 136.18 212.79 134.568C212.79 132.809 214.327 131.378 216.217 131.378C218.114 131.378 219.651 132.809 219.651 134.568C219.639 137.565 218.63 140.649 216.891 143.64C215.058 146.76 212.386 149.791 209.003 152.453C209.684 153.332 210.622 154.482 211.832 155.696C214.441 158.352 218.208 161.29 222.713 162.785C224.483 163.371 225.422 165.195 224.786 166.86C224.15 168.526 222.196 169.382 220.401 168.795C214.296 166.755 209.734 163.031 206.628 159.858C205.248 158.451 204.177 157.156 203.377 156.123C197.707 159.167 190.695 161.179 182.681 161.179C180.784 161.179 179.254 159.748 179.254 157.988C179.253 156.224 180.784 154.787 182.68 154.787Z" fill="white"/>
</svg>
